<svg width="190" height="115" viewBox="0 0 190 115" fill="none" xmlns="http://www.w3.org/2000/svg">
<path d="M33.2422 8.45215H18.0273V106.548H33.2422V115H0V0H33.2422V8.45215ZM190 115H156.758V106.548H171.973V8.45215H156.758V0H190V115ZM125.762 25.6846C133.774 25.6846 139.4 27.7341 142.639 31.832C145.963 35.93 147.625 42.1194 147.625 50.4004V85.874H155.296V94.3262H121.543V85.874H128.191V68H106.968V85.874H113.616V94.3262H80.8857V85.874H87.5342V51.1689C87.5342 46.6443 86.7666 43.4427 85.2324 41.5645C83.7835 39.601 81.3117 38.6193 77.8174 38.6191C74.8342 38.6191 72.1483 39.4297 69.7617 41.0518C67.4605 42.5885 66.3106 45.1073 66.3105 48.6074V85.874H72.958V94.3262H39.2051V85.874H46.876V40.1553L39.2051 38.4912V31.1914L65.9268 25.6846V38.3623H66.5654C67.7588 34.9475 69.8052 32.0022 72.7031 29.5264C75.6863 26.9654 79.8201 25.6846 85.1045 25.6846C90.9004 25.6846 95.4183 26.7514 98.6572 28.8857C101.981 31.0201 104.24 34.1792 105.434 38.3623H105.944C107.308 35.0328 109.61 32.0875 112.849 29.5264C116.088 26.9653 120.392 25.6846 125.762 25.6846ZM118.347 38.6191C116.898 38.6191 115.491 38.832 114.127 39.2588C112.764 39.6003 111.528 40.1983 110.42 41.0518C109.397 41.8201 108.544 42.8454 107.862 44.126C107.266 45.4064 106.968 46.9003 106.968 48.6074V60H128.191V51.1689C128.191 46.6442 127.424 43.4427 125.89 41.5645C124.441 39.6009 121.926 38.6192 118.347 38.6191Z" fill="black"/>
</svg>
